<svg width="87" height="78" viewBox="0 0 87 78" fill="none" xmlns="http://www.w3.org/2000/svg">
<path d="M84.659 44.7083C75.4504 30.6715 76.4292 16.2832 71.9905 9.51806C67.5517 2.75294 54.3231 -8.91088 23.0668 11.4135C-8.18945 31.738 -0.239636 53.8319 4.64469 61.2708C27.5032 96.1072 100.97 69.5678 84.659 44.7083Z" fill="#F3F6F9"/>
<path d="M70.8923 40.8176V56.573C70.8923 59.2393 68.7009 61.4208 66.0225 61.4208H20.9776C18.2993 61.4208 16.1079 59.2393 16.1079 56.573V40.8176H25.263C26.3343 40.8176 27.2839 41.5206 27.5761 42.5386L30.2057 51.2162C30.4979 52.2342 31.4475 52.9371 32.5189 52.9371H54.4813C55.5526 52.9371 56.5022 52.2342 56.7944 51.2162L59.4241 42.5386C59.7162 41.5206 60.6658 40.8176 61.7372 40.8176H70.8923Z" fill="#F3F3F1"/>
<path d="M70.8922 40.8181H61.7372C60.6658 40.8181 59.7162 41.5211 59.4241 42.5391L56.7944 51.2167C56.5022 52.2347 55.5526 52.9376 54.4813 52.9376H32.5189C31.4475 52.9376 30.4979 52.2347 30.2057 51.2167L27.5761 42.5391C27.2839 41.5211 26.3343 40.8181 25.263 40.8181H16.1079L27.0648 16.5791H59.9354L70.8922 40.8181Z" fill="#FF0F7B"/>
<path d="M62.273 51.2162L64.9027 42.5386C65.1948 41.5206 66.1444 40.8176 67.2158 40.8176H61.7373C60.666 40.8176 59.7164 41.5206 59.4242 42.5386L56.7946 51.2162C56.5024 52.2342 55.5528 52.9371 54.4814 52.9371H59.9599C61.0312 52.9371 61.9808 52.2342 62.273 51.2162Z" fill="#D5DBE1"/>
<path d="M21.5863 56.573V40.8176H16.1079V56.573C16.1079 59.2393 18.2993 61.4208 20.9776 61.4208H26.4561C23.7777 61.4208 21.5863 59.2393 21.5863 56.573Z" fill="#D5DBE1"/>
<path d="M27.0648 16.5791L16.1079 40.8181H21.5863L32.5432 16.5791H27.0648Z" fill="#E10065"/>
<path d="M35.6844 51.2162L33.0547 42.5386C32.7626 41.5206 31.813 40.8176 30.7416 40.8176H25.2632C26.3345 40.8176 27.2841 41.5206 27.5763 42.5386L30.2059 51.2162C30.4981 52.2342 31.4477 52.9371 32.5191 52.9371H37.9975C36.9262 52.9371 35.9766 52.2342 35.6844 51.2162Z" fill="#E10065"/>
<path d="M67.2255 11.1253C65.2119 11.1253 63.5732 9.49406 63.5732 7.48949C63.5732 5.48492 65.2119 3.85364 67.2255 3.85364C69.2392 3.85364 70.8778 5.48492 70.8778 7.48949C70.8778 9.49406 69.2392 11.1253 67.2255 11.1253ZM67.2255 6.27754C66.5535 6.27754 66.0081 6.82292 66.0081 7.48949C66.0081 8.15607 66.5535 8.70144 67.2255 8.70144C67.8976 8.70144 68.443 8.15607 68.443 7.48949C68.443 6.82292 67.8976 6.27754 67.2255 6.27754Z" fill="#D7DAE7"/>
<path d="M16.8213 7.05188L18.543 5.33792L21.9864 8.76584L20.2647 10.4798L16.8213 7.05188Z" fill="#D7DAE7"/>
<path d="M16.3877 18.6226L19.8284 15.192L21.5488 16.9073L18.1081 20.3378L16.3877 18.6226Z" fill="#D7DAE7"/>
<path d="M26.2896 8.76672L29.733 5.33881L31.4547 7.05277L28.0113 10.4807L26.2896 8.76672Z" fill="#D7DAE7"/>
<path d="M66.0225 63.2388H20.9776C17.2839 63.2388 14.2817 60.2501 14.2817 56.5731V40.8177C14.2817 40.5608 14.3353 40.3063 14.4424 40.0711L25.3993 15.8321C25.6939 15.1801 26.3465 14.7607 27.0648 14.7607H59.9354C60.6536 14.7607 61.3062 15.1801 61.6008 15.8321L72.5577 40.0711C72.6648 40.3063 72.7184 40.5608 72.7184 40.8177V56.5731C72.7184 60.2501 69.7162 63.2388 66.0225 63.2388ZM17.934 41.208V56.5731C17.934 58.2431 19.3 59.603 20.9776 59.603H66.0225C67.7001 59.603 69.0661 58.2431 69.0661 56.5731V41.208L58.7544 18.3966H28.2457L17.934 41.208Z" fill="#3F4254"/>
<path d="M54.4716 54.7552H32.5286C30.6343 54.7552 28.9932 53.5409 28.4478 51.7326L25.8352 43.0696C25.7573 42.8151 25.5186 42.6357 25.2532 42.6357H16.1079V38.9999H25.2532C27.1476 38.9999 28.7887 40.2143 29.3341 42.0225L31.9467 50.6855C32.0246 50.9424 32.2632 51.1194 32.5286 51.1194H54.4716C54.737 51.1194 54.978 50.9424 55.0535 50.6855L57.6661 42.0225C58.2115 40.2143 59.8502 38.9999 61.7469 38.9999H70.8923V42.6357H61.7469C61.4815 42.6357 61.2405 42.8127 61.165 43.0696L58.5524 51.7326C58.007 53.5409 56.3659 54.7552 54.4716 54.7552Z" fill="#3F4254"/>
<path d="M4.54248 59.603H82.458V63.2389H4.54248V59.603Z" fill="#3F4254"/>
</svg>
