<svg width="40" height="40" viewBox="0 0 40 40" fill="none" xmlns="http://www.w3.org/2000/svg">
<rect opacity="0.01" width="40" height="40" fill="#6C4040"/>
<path fill-rule="evenodd" clip-rule="evenodd" d="M10.9091 9C15.6546 9 19.6818 12.0616 21.1818 16.3333H40V23.6667H36.3636V31H29.0909V23.6667H21.1818C19.6818 27.9383 15.6546 31 10.9091 31C4.88182 31 0 26.0775 0 20C0 13.9225 4.88182 9 10.9091 9ZM7.2727 19.9999C7.2727 22.0258 8.90003 23.6666 10.9091 23.6666C12.9182 23.6666 14.5455 22.0259 14.5455 20C14.5455 17.9741 12.9182 16.3333 10.9091 16.3333C8.90003 16.3333 7.2727 17.974 7.2727 19.9999Z" fill="#FFA800"/>
</svg>
